<?xml version="1.0" standalone="no"?>
<!DOCTYPE svg PUBLIC "-//W3C//DTD SVG 20010904//EN"
 "http://www.w3.org/TR/2001/REC-SVG-20010904/DTD/svg10.dtd">
<svg version="1.0" xmlns="http://www.w3.org/2000/svg"
 width="936.000000pt" height="936.000000pt" viewBox="0 0 936.000000 936.000000"
 preserveAspectRatio="xMidYMid meet">
<metadata>
Created by potrace 1.14, written by Peter Selinger 2001-2017
</metadata>
<g transform="translate(0.000000,936.000000) scale(0.100000,-0.100000)"
fill="#000000" stroke="none">
<path d="M2298 9341 c-305 -98 -397 -473 -171 -699 81 -81 198 -127 308 -122
22 1 45 2 50 2 64 -4 357 -3 362 1 3 4 13 2 23 -3 10 -5 19 -7 21 -5 6 6 52 6
337 5 139 -1 256 1 259 4 3 3 13 1 23 -4 10 -5 19 -7 21 -5 6 5 56 6 257 4 95
-1 176 1 179 5 3 3 13 1 23 -4 10 -5 19 -7 21 -5 6 5 62 6 177 4 51 -1 95 1
98 4 4 4 14 2 24 -3 10 -5 19 -7 21 -5 6 5 60 6 212 3 70 -2 127 1 127 5 0 5
4 5 10 2 12 -8 395 -9 407 -2 5 3 15 2 21 -2 7 -4 33 -5 57 -1 24 4 50 3 57
-1 6 -4 15 -6 18 -4 8 5 97 6 262 2 71 -1 128 2 128 6 0 5 4 5 10 2 13 -8 239
-10 246 -2 4 4 14 2 24 -3 10 -5 19 -7 21 -5 6 5 62 6 177 4 51 -1 95 1 98 4
4 4 14 2 24 -3 10 -5 19 -7 21 -5 6 5 56 6 257 4 95 -1 176 1 179 5 3 3 13 1
23 -4 10 -5 19 -7 21 -5 5 5 57 6 149 5 36 -1 70 0 75 1 6 1 14 1 19 0 25 -5
117 25 172 55 197 108 269 358 164 565 -26 50 -106 131 -162 163 -102 59 49
56 -2473 55 -2212 0 -2323 -1 -2377 -18z"/>
<path d="M2670 8380 c-6 -12 -17 -51 -25 -90 0 -3 -4 -21 -8 -40 -4 -19 -9
-46 -12 -60 -6 -27 -10 -52 -20 -120 -4 -25 -9 -52 -10 -60 -2 -8 -6 -44 -10
-80 -3 -36 -8 -76 -10 -90 -2 -14 -7 -81 -10 -150 -3 -68 -7 -126 -9 -128 -2
-1 0 -19 4 -38 4 -19 5 -36 1 -38 -3 -2 -5 -22 -4 -43 1 -21 5 -90 8 -153 3
-63 7 -132 10 -152 3 -21 8 -57 11 -80 10 -78 31 -194 49 -273 31 -137 109
-353 170 -470 136 -263 257 -410 526 -639 19 -16 52 -45 74 -65 22 -20 62 -54
89 -76 27 -22 56 -47 66 -55 9 -8 30 -25 46 -37 16 -12 74 -57 130 -100 55
-43 113 -87 128 -98 24 -17 77 -56 111 -82 6 -5 28 -21 50 -38 152 -113 222
-194 240 -280 4 -16 8 -80 9 -140 4 -137 -15 -223 -63 -286 -34 -44 -130 -127
-237 -204 -26 -18 -211 -158 -278 -208 -16 -12 -38 -30 -50 -39 -11 -10 -25
-21 -31 -25 -61 -48 -113 -91 -125 -103 -8 -8 -37 -33 -65 -55 -27 -22 -63
-53 -79 -68 -16 -15 -54 -49 -84 -75 -316 -274 -513 -596 -618 -1012 -16 -64
-17 -68 -38 -180 -30 -164 -50 -401 -46 -555 1 -49 1 -61 -1 -87 -2 -40 15
-277 27 -363 2 -16 6 -48 9 -70 8 -65 18 -127 30 -185 2 -14 7 -38 10 -55 8
-46 33 -136 40 -143 3 -4 906 -6 2006 -7 1822 0 2002 1 2010 16 4 9 10 27 13
40 2 13 12 57 20 96 18 85 20 93 41 239 21 146 34 329 37 509 1 63 -11 323
-17 356 -2 13 -9 60 -15 105 -11 83 -12 92 -31 184 -24 120 -70 273 -119 395
-87 215 -229 431 -388 591 -128 129 -463 415 -642 547 -30 23 -59 45 -65 50
-5 4 -53 39 -105 77 -299 218 -330 262 -335 479 -3 124 12 213 45 265 30 49
115 129 195 184 22 15 49 34 60 43 11 9 88 67 170 129 83 62 152 117 153 121
2 5 10 9 17 9 7 0 15 3 17 8 2 4 59 54 128 112 69 57 130 109 136 115 7 5 47
42 90 80 43 39 110 101 148 140 71 71 216 255 216 274 0 6 4 11 9 11 5 0 11 8
14 18 3 9 22 46 43 82 66 116 169 382 188 481 2 13 11 51 19 84 9 33 18 78 21
100 3 22 7 51 10 64 3 13 8 49 11 80 4 31 8 68 11 82 5 33 16 257 16 329 0 53
-11 289 -17 360 -15 176 -79 527 -99 547 -3 4 -906 6 -2007 7 -1769 1 -2002
-1 -2009 -14z m3891 -149 c8 -1 30 -119 44 -227 2 -22 7 -59 11 -84 9 -71 25
-332 26 -425 0 -30 -13 -296 -17 -326 -13 -126 -45 -307 -69 -394 -2 -5 -6
-23 -11 -40 -6 -27 -24 -78 -72 -215 -17 -49 -129 -271 -141 -280 -4 -3 -13
-17 -19 -32 -7 -16 -17 -28 -23 -28 -5 0 -10 -5 -10 -11 0 -12 -99 -135 -152
-189 -41 -41 -119 -113 -208 -190 -35 -30 -68 -60 -74 -65 -43 -40 -249 -207
-331 -268 -33 -25 -68 -53 -77 -61 -10 -9 -20 -16 -22 -16 -3 0 -36 -23 -73
-51 -37 -28 -81 -61 -97 -73 -191 -141 -270 -235 -297 -352 -19 -85 -20 -97
-21 -199 -4 -281 46 -375 302 -568 133 -101 113 -86 215 -161 44 -33 82 -62
85 -66 3 -3 21 -17 40 -30 19 -13 40 -29 46 -35 37 -34 65 -55 74 -55 6 0 10
-4 10 -9 0 -4 21 -25 46 -44 44 -34 91 -75 223 -191 134 -117 331 -332 331
-361 0 -3 5 -11 10 -18 62 -74 162 -286 221 -472 16 -49 13 -36 43 -175 34
-159 32 -146 52 -325 3 -32 15 -263 15 -310 1 -75 -15 -345 -26 -425 -3 -25
-7 -58 -9 -75 -6 -43 -16 -107 -21 -135 -3 -14 -8 -41 -11 -60 -3 -19 -7 -37
-9 -40 -2 -3 -851 -5 -1887 -5 l-1883 0 -17 90 c-9 50 -20 117 -24 150 -4 33
-8 71 -10 85 -10 78 -17 198 -18 292 -1 60 -5 108 -9 108 -5 0 -6 4 -3 9 3 5
8 71 11 147 3 77 7 159 10 184 3 25 7 64 10 88 2 24 8 66 14 95 6 29 13 63 15
77 3 14 7 36 11 50 3 14 8 36 11 50 3 14 6 30 8 35 1 6 8 30 15 55 13 48 38
122 52 155 4 11 22 54 39 96 17 42 46 102 65 133 18 31 32 56 29 56 -9 0 95
144 176 243 15 19 113 114 161 158 178 161 387 334 534 444 44 33 82 62 85 65
3 3 28 21 55 39 28 19 52 37 55 41 3 3 40 31 83 63 184 137 255 243 274 407
11 88 6 256 -8 313 -7 28 -13 54 -14 57 0 3 -12 30 -27 60 -38 76 -122 162
-264 267 -197 145 -325 242 -399 301 -95 77 -108 87 -201 168 -33 28 -84 73
-114 99 -208 180 -335 334 -438 532 -89 171 -166 408 -197 603 -3 14 -9 54
-15 90 -16 97 -23 218 -24 377 -1 79 -5 143 -9 143 -5 0 -5 5 -2 11 4 5 8 45
10 87 5 96 20 264 30 332 3 19 8 51 10 70 3 19 7 44 10 56 2 12 7 39 11 60 3
21 7 41 9 44 3 4 3746 5 3766 1z"/>
<path d="M3270 6350 c0 -5 18 -33 42 -65 64 -87 247 -276 345 -355 92 -75 128
-106 131 -112 2 -5 8 -8 14 -8 6 0 16 -6 22 -13 6 -8 79 -65 161 -128 323
-245 497 -397 565 -494 43 -62 82 -152 106 -245 21 -79 28 -86 37 -35 13 74
93 260 129 300 27 30 38 44 38 50 0 6 125 131 156 155 10 8 35 26 54 39 39 27
222 163 230 171 3 3 32 25 65 49 54 40 249 193 313 246 37 30 295 286 317 315
54 68 96 130 88 131 -28 5 -2813 3 -2813 -1z"/>
<path d="M4660 2740 c-18 -44 -97 -111 -181 -153 -57 -29 -348 -135 -414 -151
-5 -2 -17 -6 -25 -9 -8 -3 -58 -19 -110 -37 -132 -43 -307 -108 -356 -131 -23
-10 -44 -19 -48 -19 -15 0 -227 -110 -278 -144 -127 -85 -233 -219 -252 -321
-3 -11 -9 -39 -14 -63 -16 -69 -7 -219 18 -297 l10 -30 1667 1 c918 1 1670 2
1673 3 4 0 12 29 19 64 31 143 18 282 -36 394 -32 66 -39 76 -108 151 -142
155 -304 228 -1050 476 -27 10 -59 21 -70 25 -11 5 -51 21 -90 36 -153 60
-233 105 -280 157 -25 28 -45 56 -45 64 0 24 -17 15 -30 -16z"/>
<path d="M2457 843 c-1 -1 -27 -3 -57 -4 -223 -11 -398 -194 -398 -417 0 -191
122 -352 307 -406 49 -14 288 -16 2371 -16 2097 0 2322 2 2371 16 196 58 320
234 306 434 -3 41 -11 89 -18 105 -7 17 -12 33 -11 38 1 4 -2 7 -7 7 -5 0 -12
11 -15 25 -9 37 -113 138 -172 168 -52 27 -75 33 -151 43 -36 5 -4521 12
-4526 7z"/>
</g>
</svg>
